<svg width="36" height="37" viewBox="0 0 36 37" fill="none" xmlns="http://www.w3.org/2000/svg">
<g id="shuffle">
<path id="shuffle_2" d="M4.06641 24.5352C4.06641 23.8555 4.59375 23.3633 5.32031 23.3633H7.99219C9.29297 23.3633 10.1367 22.9062 11.1445 21.7109L13.9922 18.3242L11.1445 14.9375C10.1367 13.7422 9.22266 13.2852 7.91016 13.2852H5.32031C4.59375 13.2852 4.06641 12.793 4.06641 12.1133C4.06641 11.4336 4.59375 10.9531 5.32031 10.9531H8.00391C10.0078 10.9531 11.2734 11.5391 12.6562 13.168L15.4922 16.543L18.2227 13.2969C19.7109 11.5156 20.9883 10.9414 23.0742 10.9414H25.4062V8.17578C25.4062 7.60156 25.7461 7.28516 26.3086 7.28516C26.5664 7.28516 26.8008 7.36719 27 7.53125L31.5938 11.3633C32.0391 11.75 32.0391 12.3125 31.5938 12.6758L27 16.5078C26.8008 16.6602 26.5664 16.7539 26.3086 16.7539C25.7461 16.7539 25.4062 16.4258 25.4062 15.8633V13.2852H23.0625C21.7031 13.2852 20.8828 13.7188 19.8633 14.9258L16.9922 18.3242L19.8516 21.7109C20.8477 22.9062 21.75 23.3633 23.1328 23.3633H25.4062V20.832C25.4062 20.2578 25.7461 19.9414 26.3086 19.9414C26.5664 19.9414 26.8008 20.0234 27 20.1875L31.5938 24.0195C32.0391 24.4062 32.0391 24.9688 31.5938 25.332L27 29.1641C26.8008 29.3164 26.5664 29.4102 26.3086 29.4102C25.7461 29.4102 25.4062 29.082 25.4062 28.5195V25.6953H23.0625C21.0469 25.6953 19.7109 25.1094 18.293 23.4219L15.4922 20.1055L12.6562 23.4805C11.2734 25.1094 10.0898 25.6953 8.07422 25.6953H5.32031C4.59375 25.6953 4.06641 25.2148 4.06641 24.5352Z" fill="#03A9F4"/>
</g>
</svg>
